<svg width="18" height="15" viewBox="0 0 18 15" fill="none" xmlns="http://www.w3.org/2000/svg">
<path d="M7.3035 14.4462C7.2165 14.3614 6.8445 14.0414 6.5385 13.7433C4.614 11.9956 1.464 7.43643 0.5025 5.05017C0.348 4.68777 0.021 3.77155 0 3.28203C0 2.81296 0.108 2.36581 0.327 1.93911C0.633 1.40721 1.1145 0.980516 1.683 0.746712C2.0775 0.596201 3.258 0.362396 3.279 0.362396C4.5705 0.128592 6.669 0 8.988 0C11.1975 0 13.2105 0.128592 14.5215 0.320019C14.5425 0.341939 16.0095 0.575743 16.512 0.831466C17.43 1.30054 18 2.21676 18 3.19727V3.28203C17.9775 3.9206 17.4075 5.26352 17.3865 5.26352C16.4235 7.52119 13.428 11.9752 11.4375 13.7652C11.4375 13.7652 10.926 14.2694 10.6065 14.4886C10.1475 14.8305 9.579 15 9.0105 15C8.376 15 7.785 14.8086 7.3035 14.4462Z" fill="#324ECF"/>
</svg>
