<svg width="428" height="180" viewBox="0 0 428 180" fill="none" xmlns="http://www.w3.org/2000/svg">
<mask id="mask0_5726_454" style="mask-type:alpha" maskUnits="userSpaceOnUse" x="0" y="0" width="428" height="180">
<rect width="428" height="180" fill="#D9D9D9"/>
</mask>
<g mask="url(#mask0_5726_454)">
<circle cx="214.5" cy="-45.5" r="225.5" fill="url(#paint0_linear_5726_454)"/>
</g>
<circle cx="214" cy="90" r="50" fill="black"/>
<path d="M236.896 85.3375V94H235.036V92.4688C234.453 92.7313 233.826 92.8625 233.155 92.8625C232.207 92.8625 231.412 92.5781 230.771 92.0094C230.129 91.4406 229.808 90.6677 229.808 89.6906C229.808 88.6698 230.122 87.8823 230.749 87.3281C231.391 86.774 232.193 86.4969 233.155 86.4969C233.826 86.4969 234.453 86.6354 235.036 86.9125V85.3375H228.474V83.8063H238.843V85.3375H236.896ZM233.461 91.1781C234.045 91.1781 234.57 91.0031 235.036 90.6531V88.6844C234.613 88.3635 234.088 88.2031 233.461 88.2031C232.922 88.2031 232.477 88.3271 232.127 88.575C231.777 88.8229 231.602 89.1948 231.602 89.6906C231.602 90.1865 231.777 90.5583 232.127 90.8063C232.477 91.0542 232.922 91.1781 233.461 91.1781Z" fill="white"/>
<path d="M234.988 98.3781C234.215 98.3781 233.595 98.1448 233.128 97.6781C232.676 97.2115 232.45 96.6281 232.45 95.9281C232.45 95.1406 232.698 94.5208 233.194 94.0688C233.69 93.6313 234.39 93.4125 235.294 93.4125H236.891V94.9219H235.207C234.375 94.9219 233.96 95.25 233.96 95.9063C233.96 96.2125 234.047 96.4531 234.222 96.6281C234.412 96.8031 234.667 96.8906 234.988 96.8906C235.484 96.8906 235.965 96.7521 236.432 96.475L237.175 97.7438C236.825 97.9479 236.483 98.101 236.147 98.2031C235.812 98.3198 235.425 98.3781 234.988 98.3781Z" fill="white"/>
<path d="M243.257 79.5844C244.846 79.5844 246.348 80.0073 247.763 80.8531C249.192 81.6844 250.512 82.8875 251.722 84.4625H249.71C248.747 83.3542 247.756 82.5229 246.735 81.9688C245.714 81.4 244.547 81.1156 243.235 81.1156C242.491 81.1156 241.937 81.2469 241.572 81.5094C241.222 81.7719 241.047 82.1219 241.047 82.5594C241.047 83.0406 241.186 83.4563 241.463 83.8063H243.366V85.3375H241.485V94H239.625V85.3375H237.788V83.8063H239.625C239.436 83.3979 239.341 82.9458 239.341 82.45C239.341 81.6042 239.676 80.9188 240.347 80.3938C241.033 79.8542 242.002 79.5844 243.257 79.5844Z" fill="white"/>
<path d="M251.018 85.3375V94H249.159V89.0344H247.584C246.811 89.0344 246.279 89.1146 245.987 89.275C245.695 89.4354 245.549 89.7198 245.549 90.1281C245.549 90.5219 245.659 90.9667 245.877 91.4625C246.111 91.9438 246.344 92.3885 246.577 92.7969C246.825 93.2052 246.979 93.4677 247.037 93.5844L245.506 94.4813C244.951 93.5625 244.507 92.7385 244.171 92.0094C243.85 91.2802 243.69 90.5948 243.69 89.9531C243.69 89.0344 243.967 88.3708 244.521 87.9625C245.09 87.5396 245.929 87.3281 247.037 87.3281H249.159V85.3375H242.334V83.8063H252.965V85.3375H251.018Z" fill="white"/>
<path d="M221.001 83.5H223.001V97H221.001V83.5Z" fill="white"/>
<path d="M177.895 94L173.365 83.5H175.99L179.95 92.8H178.405L182.425 83.5H184.84L180.295 94H177.895Z" fill="white"/>
<path d="M185.717 94V83.5H190.262C191.202 83.5 192.012 83.655 192.692 83.965C193.372 84.265 193.897 84.7 194.267 85.27C194.637 85.84 194.822 86.52 194.822 87.31C194.822 88.09 194.637 88.765 194.267 89.335C193.897 89.895 193.372 90.325 192.692 90.625C192.012 90.925 191.202 91.075 190.262 91.075H187.067L188.147 90.01V94H185.717ZM192.392 94L189.767 90.19H192.362L195.017 94H192.392ZM188.147 90.28L187.067 89.14H190.127C190.877 89.14 191.437 88.98 191.807 88.66C192.177 88.33 192.362 87.88 192.362 87.31C192.362 86.73 192.177 86.28 191.807 85.96C191.437 85.64 190.877 85.48 190.127 85.48H187.067L188.147 84.325V90.28Z" fill="white"/>
<path d="M196.747 94V83.5H199.177V94H196.747Z" fill="white"/>
<path d="M203.844 94V85.48H200.484V83.5H209.634V85.48H206.274V94H203.844Z" fill="white"/>
<path d="M210.942 94V83.5H213.372V94H210.942Z" fill="white"/>
<defs>
<linearGradient id="paint0_linear_5726_454" x1="-11" y1="-2" x2="440" y2="-2" gradientUnits="userSpaceOnUse">
<stop stop-color="#EBEDFA"/>
<stop offset="1" stop-color="#EBEDFA" stop-opacity="0"/>
</linearGradient>
</defs>
</svg>
